 <svg version="1.0" xmlns="http://www.w3.org/2000/svg" width="700.000000pt" height="779.000000pt" viewBox="0 0 700.000000 779.000000" preserveAspectRatio="xMidYMid meet">
<metadata>
Created by potrace 1.12, written by Peter Selinger 2001-2015
</metadata>
<g transform="translate(0.000000,779.000000) scale(0.100000,-0.100000)" fill="#000000" stroke="none">
<path d="M3215 3220 c-269 -14 -483 -29 -527 -39 -24 -5 -79 -12 -123 -16 -44
-3 -116 -13 -160 -21 -44 -8 -120 -21 -170 -29 -168 -29 -334 -66 -492 -110
-29 -8 -77 -21 -105 -29 -95 -26 -152 -44 -253 -81 -55 -20 -111 -40 -125 -45
-110 -36 -385 -169 -535 -258 -251 -149 -474 -353 -583 -534 -40 -64 -82 -153
-82 -170 0 -9 -4 -19 -9 -22 -4 -3 -14 -32 -20 -65 -7 -33 -16 -63 -21 -66
-15 -9 -12 -204 4 -250 7 -22 24 -74 36 -115 62 -203 227 -410 480 -601 47
-35 94 -69 105 -76 11 -7 61 -36 110 -66 89 -53 317 -167 405 -202 45 -17 69
-28 143 -59 21 -9 45 -16 53 -16 9 0 28 -6 42 -14 40 -20 116 -45 247 -80 28
-8 89 -25 138 -40 48 -14 95 -26 104 -26 9 0 39 -6 67 -14 64 -18 173 -40 296
-61 52 -9 129 -22 170 -30 41 -7 109 -17 150 -20 41 -3 101 -11 133 -16 31 -6
127 -14 211 -19 85 -4 163 -13 174 -19 29 -16 816 -15 844 0 12 6 94 15 182
20 89 5 184 13 211 18 28 6 84 13 125 16 41 4 111 13 155 21 44 8 121 21 170
29 166 29 326 64 493 110 231 64 307 88 354 111 14 8 33 14 42 14 8 0 30 6 48
14 18 8 69 29 113 46 123 50 340 157 440 217 50 30 99 59 110 66 115 69 331
261 413 367 79 102 162 244 162 278 0 7 4 20 10 30 40 73 64 316 37 376 -8 17
-18 50 -22 73 -4 24 -11 45 -16 49 -5 3 -9 13 -9 23 0 37 -76 169 -162 282
-79 103 -297 296 -413 366 -11 7 -60 36 -110 66 -100 60 -317 167 -440 217
-44 17 -94 38 -110 45 -17 7 -45 16 -62 19 -18 4 -35 12 -38 17 -4 5 -15 9
-27 9 -11 0 -34 6 -51 14 -18 7 -63 22 -102 34 -38 11 -94 27 -124 36 -29 9
-62 16 -72 16 -10 0 -20 4 -24 9 -3 6 -27 13 -53 16 -26 4 -69 13 -97 20 -90
24 -190 45 -209 45 -10 0 -48 7 -85 15 -162 35 -412 65 -786 95 -180 14 -580
19 -760 10z"></path>
</g>
</svg>